<?xml version="1.0" standalone="no"?>
<!DOCTYPE svg PUBLIC "-//W3C//DTD SVG 20010904//EN"
 "http://www.w3.org/TR/2001/REC-SVG-20010904/DTD/svg10.dtd">
<svg version="1.0" xmlns="http://www.w3.org/2000/svg"
 width="1042.158529pt" height="981.867572pt" viewBox="0 0 1042.158529 981.867572"
 preserveAspectRatio="xMidYMid meet">
<metadata>
Created by potrace 1.12, written by Peter Selinger 2001-2015
</metadata>
<g transform="translate(-14.925970,985.837482) scale(0.100000,-0.100000)"
fill="#000000" stroke="none">
<path d="M4780 9854 c-14 -2 -56 -9 -95 -14 -67 -10 -98 -17 -202 -41 -64 -15
-228 -66 -278 -85 -22 -9 -49 -20 -60 -24 -11 -4 -94 -43 -185 -87 -154 -75
-172 -81 -265 -93 -105 -13 -291 -57 -385 -91 -52 -19 -207 -90 -240 -110 -8
-5 -31 -17 -50 -28 -96 -52 -262 -178 -391 -298 -58 -53 -111 -93 -135 -102
-248 -86 -536 -331 -737 -628 -34 -51 -65 -93 -68 -93 -12 0 -134 -75 -229
-140 -308 -212 -581 -604 -665 -958 -9 -37 -24 -98 -33 -137 -17 -73 -45 -122
-113 -201 -174 -202 -307 -507 -349 -804 -13 -92 -8 -382 8 -505 10 -68 9 -72
-27 -160 -53 -126 -106 -297 -120 -383 -22 -143 -12 -417 20 -532 6 -19 19
-68 30 -108 23 -85 58 -178 105 -279 19 -39 34 -73 34 -76 0 -11 94 -172 153
-263 l64 -99 17 -130 c10 -71 22 -148 28 -170 5 -22 14 -58 19 -80 42 -169
171 -409 307 -575 98 -119 284 -286 443 -398 113 -79 116 -83 145 -149 50
-118 117 -245 179 -337 33 -49 71 -106 84 -125 33 -50 274 -289 341 -338 114
-85 291 -184 416 -233 100 -40 256 -90 280 -90 28 0 83 -37 161 -106 103 -92
120 -106 224 -176 171 -115 376 -208 579 -262 140 -38 225 -50 450 -66 189
-14 186 -13 274 -55 147 -69 237 -100 401 -138 281 -66 565 -63 840 9 55 14
116 29 135 34 19 4 49 13 65 19 88 36 128 40 256 25 308 -34 612 -1 844 92 33
13 63 24 68 24 14 0 162 74 204 102 23 15 44 28 48 28 3 0 11 5 18 10 7 6 41
33 77 61 36 28 87 69 114 92 64 55 65 56 128 67 79 15 235 58 303 85 33 12 75
29 94 36 71 27 249 128 326 184 78 58 262 234 340 325 58 69 132 186 177 280
36 77 81 140 99 140 3 0 58 30 120 66 257 148 422 302 603 562 54 78 176 303
189 347 3 11 14 45 25 75 39 109 52 162 67 278 9 64 24 135 34 157 10 22 50
78 90 125 83 98 186 250 224 330 171 361 206 751 101 1116 -13 47 -13 57 5
125 88 328 82 621 -20 929 -30 92 -105 276 -119 295 -5 6 -21 44 -36 85 -22
61 -29 100 -35 210 -10 188 -22 260 -61 370 -73 204 -175 366 -333 531 -98
103 -168 162 -262 222 -74 47 -86 64 -118 162 -64 199 -193 393 -395 595 -79
79 -201 190 -245 223 -5 4 -28 21 -50 38 -60 46 -228 140 -324 180 -83 34 -88
39 -139 110 -138 195 -373 402 -586 519 -149 82 -382 151 -601 179 -247 31
-247 31 -335 79 -218 117 -321 162 -470 203 -178 50 -448 61 -700 30 -91 -11
-193 -26 -228 -32 -64 -11 -104 -7 -257 26 -68 14 -365 28 -415 19z m486 -288
c119 -26 196 -54 296 -104 280 -143 470 -384 641 -817 57 -143 97 -291 116
-425 26 -198 31 -250 41 -455 6 -121 13 -241 16 -267 11 -92 -28 -54 -109 107
-39 75 -137 320 -137 341 0 20 -28 66 -34 56 -3 -5 -2 -23 3 -38 5 -16 14 -56
21 -89 40 -198 91 -320 185 -442 95 -125 80 -115 -122 78 -90 86 -135 171
-174 331 -45 187 -77 294 -120 393 -50 116 -139 249 -139 207 0 -4 4 -12 8
-17 16 -19 81 -181 101 -250 10 -38 27 -116 36 -173 14 -84 15 -109 5 -133
-17 -39 -30 -27 -60 58 -71 201 -168 345 -441 654 -52 58 -134 155 -184 215
-244 297 -371 412 -560 504 -143 70 -278 118 -360 128 -105 13 -75 30 155 89
131 34 182 45 285 63 81 14 449 5 531 -14z m924 0 c128 -22 168 -32 261 -67
226 -87 434 -252 581 -464 65 -93 81 -121 136 -245 63 -143 119 -399 129 -591
3 -69 1 -267 -6 -440 -6 -173 -13 -439 -16 -593 -4 -252 -7 -299 -19 -285 -12
14 -109 281 -117 323 -14 74 -29 81 -29 14 0 -68 21 -168 54 -261 29 -84 24
-88 -76 -55 l-73 24 -37 84 c-20 47 -38 96 -41 110 -3 14 -14 60 -26 102 -11
42 -26 113 -33 157 -7 45 -17 81 -22 81 -14 0 0 -228 20 -300 9 -36 29 -96 45
-133 22 -56 25 -69 13 -74 -55 -21 -212 87 -259 177 -43 83 -83 266 -96 438
-10 129 -23 292 -39 482 -5 63 -16 158 -24 210 -15 89 -23 123 -75 306 -20 72
-55 171 -71 209 -5 11 -19 45 -30 75 -35 91 -115 242 -183 347 -74 115 -224
276 -305 329 -31 21 -59 38 -61 40 -1 1 0 8 5 15 9 16 272 6 394 -15z m-2020
-327 c235 -34 443 -118 591 -239 89 -72 238 -239 375 -420 44 -58 136 -170
204 -250 153 -177 269 -355 247 -377 -16 -15 -133 73 -247 186 -180 178 -262
250 -373 325 -90 61 -117 75 -117 60 0 -3 76 -80 169 -172 151 -150 194 -203
178 -219 -6 -5 -184 79 -237 111 -48 29 -356 194 -440 236 -264 130 -600 247
-949 330 -188 44 -373 80 -413 80 -49 0 -30 17 60 53 316 127 368 147 385 147
10 0 17 5 15 12 -7 20 -89 9 -213 -30 -46 -15 -161 -71 -245 -120 -80 -47
-122 -59 -167 -47 l-28 7 24 19 c29 24 184 115 266 157 271 138 612 194 915
151z m3146 -15 c122 -31 215 -64 293 -104 325 -163 554 -464 635 -830 49 -226
47 -617 -8 -1120 -9 -80 -23 -221 -31 -315 -22 -254 -38 -367 -51 -372 -23 -9
-50 16 -62 54 -6 21 -21 66 -32 101 -10 35 -24 91 -30 125 -15 85 -20 98 -32
91 -11 -7 -8 -68 12 -202 7 -46 9 -86 6 -90 -11 -10 -134 56 -150 81 -21 31
-34 102 -41 228 -8 135 -14 174 -26 162 -5 -5 -9 -86 -10 -181 0 -94 -5 -174
-9 -177 -10 -6 -117 45 -163 77 -15 11 -34 36 -43 56 -66 156 -104 537 -85
842 28 427 6 802 -60 1055 -54 206 -103 316 -203 448 -36 48 -66 89 -66 92 0
12 65 3 156 -21z m-4020 -554 c165 -26 300 -58 574 -135 196 -56 520 -206 609
-283 l26 -22 -65 6 c-50 5 -70 12 -85 29 -22 25 -39 32 -100 45 -22 4 -74 15
-115 23 -134 28 -211 38 -232 31 -19 -6 -18 -7 6 -19 25 -13 277 -78 349 -90
20 -3 37 -10 37 -14 0 -26 -151 -35 -405 -23 -115 6 -214 8 -218 5 -25 -15 48
-30 286 -59 80 -9 56 -27 -76 -54 -108 -22 -147 -25 -337 -25 -202 0 -403 13
-565 36 -405 57 -673 74 -867 56 -77 -8 -88 -7 -88 7 0 9 50 68 111 131 160
164 313 264 499 324 161 52 439 65 656 31z m5292 -315 c91 -86 180 -207 221
-300 84 -187 125 -439 126 -763 0 -111 2 -202 6 -202 6 0 49 129 61 185 24
116 37 302 27 403 -10 111 -38 244 -65 311 -9 23 -14 45 -10 48 10 11 103 -92
149 -165 116 -183 187 -445 187 -693 0 -175 -39 -395 -107 -609 -12 -36 -188
-494 -258 -667 -10 -24 -23 -43 -31 -43 -7 0 -23 18 -35 41 -37 73 -27 181 35
384 18 58 19 68 7 60 -27 -16 -94 -168 -114 -258 -6 -26 -16 -46 -22 -44 -20
6 -92 125 -129 213 -46 111 -60 209 -51 367 3 64 3 117 -2 117 -25 0 -53 -131
-53 -243 1 -66 7 -99 31 -167 49 -136 48 -137 -18 -71 -94 93 -107 130 -128
366 -17 202 -6 483 31 770 19 150 25 193 39 298 9 71 15 196 16 318 0 174 2
199 15 189 7 -7 14 -16 14 -21 0 -5 11 -32 24 -61 28 -61 60 -175 76 -268 18
-104 20 -110 32 -110 8 0 9 33 5 118 -8 166 -43 270 -142 421 -46 71 -69 161
-40 161 8 0 54 -38 103 -85z m-5958 -360 c52 -9 127 -20 165 -25 39 -5 102
-14 140 -20 107 -16 354 -40 413 -40 101 0 65 -23 -153 -95 -100 -33 -160 -47
-253 -56 -67 -7 -122 -16 -122 -20 0 -12 96 -29 158 -29 62 0 256 38 337 65
28 10 72 28 98 42 27 13 51 23 52 21 5 -4 -144 -141 -201 -185 -150 -117 -361
-181 -783 -238 -345 -47 -616 -94 -711 -125 -14 -4 -52 -16 -85 -25 -129 -36
-225 -72 -343 -127 -24 -11 -46 -17 -49 -14 -8 8 19 67 55 121 56 83 96 133
178 218 92 94 91 113 -2 43 -123 -90 -266 -268 -310 -381 -12 -33 -29 -53 -62
-75 -77 -51 -79 -42 -21 102 95 240 220 417 401 571 155 131 401 245 598 277
41 6 82 13 90 15 33 9 321 -6 410 -20z m1910 -45 c12 -7 10 -11 -10 -18 -157
-61 -266 -114 -360 -175 -47 -31 -180 -156 -180 -169 0 -17 21 -6 77 40 102
84 264 171 423 225 82 28 210 60 215 55 2 -2 -28 -39 -67 -83 -157 -179 -262
-319 -395 -531 -7 -10 -37 -58 -67 -106 -114 -179 -272 -485 -340 -658 -20
-52 -41 -104 -46 -115 -16 -34 -80 -240 -80 -255 0 -8 -6 -33 -14 -55 -17 -49
-71 -338 -86 -456 -13 -111 -13 -533 1 -657 17 -155 48 -365 63 -423 20 -79
27 -139 17 -139 -14 0 -94 90 -141 160 -24 35 -65 111 -91 168 -26 57 -50 106
-53 109 -15 15 -4 -70 19 -141 29 -91 73 -181 121 -249 39 -54 40 -57 17 -57
-40 0 -92 22 -130 55 -49 41 -142 194 -185 302 -35 87 -64 131 -53 78 16 -70
55 -185 88 -255 20 -41 33 -78 31 -82 -6 -10 -72 23 -102 52 -26 24 -56 81
-105 200 -117 285 -167 475 -183 705 -5 68 -9 84 -15 66 -10 -27 -13 -271 -4
-328 32 -194 75 -340 151 -502 19 -40 33 -76 30 -78 -10 -10 -130 110 -175
174 -66 98 -120 255 -153 443 -17 99 -17 505 1 620 14 92 57 306 71 355 32
105 86 263 115 330 7 17 23 55 36 85 13 30 51 109 84 175 208 408 456 713 756
933 151 109 336 188 484 206 66 7 221 5 235 -4z m629 -193 c89 -44 90 -57 4
-57 -117 0 -257 -52 -341 -126 -48 -43 -26 -43 58 -1 36 18 85 40 110 49 118
43 297 49 361 12 33 -19 50 -44 30 -44 -41 0 -216 -128 -199 -145 3 -3 27 7
54 23 121 70 212 94 260 69 51 -28 91 -65 74 -70 -111 -31 -204 -80 -312 -165
-58 -45 -114 -109 -105 -119 3 -2 36 18 73 47 105 81 326 180 400 180 28 0 32
-21 7 -41 -26 -22 -223 -240 -257 -285 -148 -195 -176 -234 -176 -239 0 -4 -9
-20 -20 -35 -11 -15 -35 -54 -54 -87 -18 -32 -61 -103 -94 -157 l-60 -99 -75
2 c-79 2 -127 -7 -217 -41 -146 -55 -238 -119 -259 -178 -15 -45 3 -47 90 -6
143 66 210 96 214 96 3 0 28 11 57 24 99 45 157 65 163 56 3 -5 -6 -34 -20
-65 -33 -72 -110 -306 -135 -410 -24 -105 -30 -133 -44 -220 -31 -191 -36
-238 -42 -391 -11 -271 31 -619 106 -889 31 -109 31 -119 -2 -123 -103 -12
-179 144 -208 427 -14 140 -30 124 -30 -30 0 -178 22 -283 77 -371 13 -21 23
-40 23 -43 0 -3 -54 -5 -120 -5 -113 0 -124 2 -178 29 -149 76 -252 186 -337
364 -48 99 -62 90 -26 -16 51 -149 142 -270 258 -349 29 -19 50 -38 46 -41
-14 -14 -105 -6 -160 14 -89 34 -147 95 -204 214 -139 294 -185 667 -139 1125
10 94 16 130 45 285 41 211 167 555 294 800 205 396 436 725 619 883 122 104
249 180 307 181 11 0 49 -14 84 -32z m-2105 -408 c-43 -48 -227 -178 -334
-236 -30 -16 -89 -48 -130 -71 -75 -41 -272 -122 -297 -122 -20 0 -16 -20 5
-21 109 -6 363 69 549 163 37 18 39 0 8 -59 -75 -144 -177 -284 -270 -370
-199 -185 -458 -316 -1165 -589 -96 -37 -222 -91 -280 -121 -123 -63 -303
-181 -386 -253 -68 -57 -87 -63 -78 -22 11 49 61 196 85 252 45 104 151 305
195 368 45 64 60 106 29 80 -19 -16 -134 -162 -158 -200 -50 -80 -115 -207
-128 -251 -34 -110 -42 -151 -43 -230 -2 -80 -4 -90 -28 -114 -14 -14 -31 -22
-37 -19 -16 10 -14 240 4 361 41 283 173 554 362 740 122 121 239 203 408 285
310 152 606 235 995 280 164 19 301 39 345 51 75 20 220 68 280 93 76 32 95
33 69 5z m6577 -178 c200 -189 310 -397 343 -651 25 -191 -1 -340 -91 -530
-116 -244 -297 -459 -560 -669 -104 -83 -332 -241 -346 -241 -4 0 -7 7 -7 15
0 19 49 95 62 95 10 0 173 247 243 368 50 89 52 120 3 62 -38 -45 -165 -229
-208 -302 -19 -31 -36 -56 -38 -54 -1 2 8 66 22 142 14 77 31 168 37 204 26
156 71 327 126 478 19 54 38 108 43 122 4 14 42 111 85 215 112 273 136 358
155 542 5 46 12 88 15 93 10 16 29 -3 89 -89 99 -143 142 -262 171 -475 12
-87 20 -83 25 14 12 234 -35 373 -207 605 -68 91 -93 145 -68 145 7 0 55 -40
106 -89z m-3618 50 c49 -33 201 -190 193 -198 -3 -3 -74 -7 -158 -9 -84 -2
-202 -11 -261 -20 -59 -8 -113 -14 -119 -12 -15 5 89 125 155 178 46 36 130
88 145 90 2 0 22 -13 45 -29z m557 -487 c313 -54 579 -128 648 -180 107 -82
236 -255 296 -398 33 -79 73 -151 91 -166 15 -12 19 -12 31 5 24 32 17 95 -19
170 -39 81 -114 201 -164 262 -62 77 -49 75 192 -25 316 -132 636 -326 806
-490 281 -269 333 -477 192 -771 -42 -88 -45 -86 -91 44 -46 129 -86 205 -137
261 -24 26 -47 46 -50 43 -2 -3 9 -28 27 -55 49 -77 72 -138 112 -297 32 -125
36 -153 26 -176 l-11 -28 -92 91 c-52 52 -139 124 -200 165 -144 97 -221 133
-677 318 -102 41 -199 83 -217 94 -18 11 -70 71 -117 132 -47 62 -125 156
-174 209 -48 54 -105 127 -126 163 -21 36 -42 65 -46 65 -12 0 -19 -51 -13
-85 12 -61 134 -273 199 -345 20 -22 34 -43 31 -46 -3 -3 -57 10 -119 30 -600
189 -973 243 -1602 235 l-258 -4 6 44 c10 73 25 92 82 107 28 7 78 26 110 43
32 16 91 40 131 52 125 39 56 55 -77 18 -41 -11 -99 -34 -129 -50 -30 -16 -58
-29 -63 -29 -29 0 25 143 69 183 11 9 48 29 84 43 58 24 98 37 199 65 68 19
157 31 315 42 94 7 160 16 159 22 0 6 -16 18 -35 27 -44 23 -237 25 -336 3
-68 -14 -234 -68 -307 -100 -21 -9 -40 -14 -43 -12 -7 8 26 68 70 125 72 95
127 122 347 172 282 63 599 72 880 24z m-4010 -405 c0 -29 -77 -158 -132 -223
-85 -99 -226 -230 -322 -299 -44 -32 -82 -63 -84 -68 -4 -11 60 11 117 41 85
43 216 144 309 238 29 30 55 52 58 49 13 -13 -21 -135 -49 -177 -38 -57 -128
-173 -141 -182 -6 -4 -7 -10 -4 -14 4 -3 40 26 80 65 40 39 74 71 75 71 10 0
0 -78 -16 -120 -33 -85 -199 -274 -346 -392 -59 -47 -324 -238 -534 -385 -164
-115 -350 -270 -472 -393 -163 -164 -254 -295 -314 -448 -22 -56 -42 -102 -45
-102 -11 0 -40 176 -51 300 -16 188 11 382 85 613 8 26 12 47 8 47 -4 0 -21
-21 -38 -47 -116 -178 -166 -406 -139 -633 13 -109 37 -186 87 -277 23 -42 28
-60 22 -88 -3 -19 -10 -35 -14 -35 -24 0 -160 259 -189 360 -7 25 -17 56 -21
70 -37 116 -50 451 -21 555 41 150 101 282 176 383 23 32 94 110 159 174 170
170 347 290 576 392 162 71 307 131 425 176 263 99 473 197 645 302 98 60 110
65 110 47z m7577 -371 c17 -21 70 -168 86 -238 33 -140 38 -169 45 -280 22
-355 -65 -602 -285 -810 -200 -189 -490 -363 -780 -466 -105 -38 -183 -57
-192 -49 -8 8 43 107 110 213 32 52 59 98 59 104 0 14 -40 -1 -87 -34 -53 -36
-93 -93 -159 -228 l-52 -106 -223 -74 c-123 -40 -260 -88 -304 -106 -141 -56
-247 -101 -343 -143 -51 -23 -97 -39 -101 -36 -23 14 35 155 64 155 6 0 33 16
60 36 28 20 115 79 195 131 143 94 310 225 310 244 0 5 -5 9 -11 9 -15 0 -269
-162 -395 -252 -52 -37 -94 -64 -94 -60 0 15 35 58 106 132 39 41 91 97 115
125 201 228 471 452 919 760 387 266 515 372 659 545 43 52 172 242 206 304
28 49 38 0 39 -184 0 -146 -26 -268 -87 -403 -29 -66 -30 -102 0 -62 62 84
123 231 144 345 14 81 0 201 -33 278 -35 83 -12 201 29 150z m-4207 -238 c294
-24 523 -61 730 -115 192 -51 249 -76 261 -116 71 -226 150 -390 205 -420 52
-27 54 12 7 151 -28 85 -118 228 -164 261 -17 11 -28 23 -26 26 3 2 72 -18
153 -46 392 -131 848 -332 999 -439 177 -125 281 -257 246 -312 -8 -12 -30 -4
-131 48 -152 79 -194 83 -90 9 144 -101 170 -121 170 -129 0 -4 -23 -26 -51
-48 -57 -45 -57 -45 -144 20 -100 74 -217 128 -142 66 88 -75 187 -171 187
-182 0 -18 -129 -124 -152 -124 -9 0 -52 21 -95 46 -189 112 -398 194 -493
194 -45 0 -36 -14 23 -35 131 -46 271 -112 374 -177 62 -39 110 -74 107 -79
-12 -21 -68 -6 -165 44 -261 131 -397 188 -569 237 -25 7 -65 18 -90 26 -121
36 -381 91 -535 113 -44 7 -105 16 -135 21 -124 20 -245 30 -430 35 -754 22
-822 29 -932 107 -34 23 -44 57 -68 228 -28 186 -27 241 5 278 41 49 258 102
420 102 41 0 75 4 75 9 0 4 -27 14 -60 21 -101 21 -263 7 -404 -36 -17 -6 -18
-2 -13 41 8 57 18 70 70 96 140 72 520 107 857 79z m-3480 -467 c0 -158 -40
-319 -111 -451 -58 -109 -113 -176 -334 -407 -227 -238 -269 -287 -347 -400
-70 -101 -98 -156 -142 -284 -70 -202 -95 -347 -103 -596 -5 -182 -2 -240 28
-415 25 -150 36 -236 32 -243 -16 -27 -103 110 -128 198 -9 33 -20 71 -25 85
-48 137 -105 343 -130 470 -17 85 -34 158 -37 163 -13 21 -23 -24 -23 -108 0
-104 18 -219 62 -393 16 -68 27 -126 23 -130 -12 -12 -98 90 -144 171 -46 81
-114 235 -124 277 -3 14 -12 52 -22 85 -27 100 -38 266 -25 375 40 327 170
572 446 840 149 144 291 255 539 417 164 108 423 298 495 363 30 27 58 50 63
50 4 0 7 -30 7 -67z m252 -671 c12 -33 119 -135 200 -193 211 -152 478 -263
773 -324 358 -73 610 -90 1100 -74 267 9 330 8 379 -3 33 -8 62 -20 64 -26 9
-27 -260 -131 -343 -132 -5 0 -3 -5 5 -10 21 -13 104 -12 154 2 22 7 70 27
106 45 88 45 93 44 86 -14 -4 -27 -11 -101 -16 -166 -5 -66 -14 -125 -20 -132
-14 -17 -155 -60 -247 -76 -40 -7 -73 -17 -73 -22 0 -14 193 -2 257 16 70 19
80 9 67 -71 l-9 -57 -69 -23 c-39 -13 -93 -26 -120 -29 -28 -3 -62 -12 -76
-19 -22 -11 -10 -12 85 -7 61 3 122 12 137 19 37 19 38 18 38 -17 0 -41 -57
-94 -123 -114 -120 -36 -550 -72 -737 -62 -514 28 -555 33 -845 107 -350 90
-603 211 -732 349 -91 96 -136 207 -168 405 -13 82 -14 119 -5 210 13 134 36
254 58 304 16 36 17 32 23 -183 8 -255 19 -332 59 -427 37 -88 74 -140 143
-205 80 -76 103 -69 33 10 -31 34 -71 91 -90 127 -64 122 -69 146 -76 380 -6
195 -9 222 -32 290 -27 76 -28 130 -3 130 7 0 15 -4 17 -8z m2831 -9 c20 -3
37 -8 37 -12 0 -3 -38 -31 -83 -62 -45 -31 -115 -85 -156 -119 -71 -59 -76
-62 -115 -56 -28 5 -48 16 -67 39 -37 44 -89 147 -96 193 l-6 37 224 -7 c123
-3 241 -9 262 -13z m-3202 -157 c-39 -138 -52 -238 -56 -416 -2 -108 -8 -172
-26 -250 -27 -122 -35 -378 -11 -401 10 -10 12 -2 12 41 0 63 24 237 40 292
12 40 28 57 34 36 14 -44 38 -128 45 -158 24 -92 64 -339 90 -560 6 -47 15
-123 21 -169 6 -46 15 -235 20 -420 9 -326 19 -435 55 -606 26 -120 64 -250
104 -354 11 -30 19 -57 16 -59 -8 -9 -79 51 -176 147 -94 94 -174 201 -230
307 -37 71 -47 50 -18 -39 47 -149 154 -310 263 -396 71 -56 181 -131 193
-131 15 -1 58 -39 50 -46 -18 -18 -328 137 -436 219 -220 166 -347 324 -474
588 -110 230 -178 531 -217 977 -19 211 8 441 76 637 65 189 127 279 439 635
55 63 113 133 129 155 42 57 80 97 84 87 1 -5 -11 -57 -27 -116z m7923 83 c17
-85 -4 -345 -39 -474 -65 -246 -214 -472 -410 -627 -239 -188 -582 -341 -955
-427 -25 -6 -74 -17 -110 -26 -58 -13 -115 -23 -335 -55 -384 -55 -493 -80
-594 -136 -52 -29 -51 -29 -51 -6 0 9 25 50 56 91 30 41 74 102 96 135 48 72
129 168 178 212 19 17 51 45 70 63 l35 33 -44 -7 c-61 -8 -91 -26 -163 -98
-47 -48 -75 -87 -110 -159 -58 -119 -87 -146 -68 -63 5 22 17 90 26 150 28
195 44 241 109 313 88 97 214 174 436 263 69 28 388 139 684 239 383 130 405
138 550 210 154 75 355 192 413 239 20 17 39 27 43 23 10 -10 -13 -94 -51
-186 -47 -113 -141 -249 -233 -339 -44 -43 -77 -80 -74 -83 9 -10 119 66 181
125 71 68 152 175 199 262 41 79 109 254 133 347 6 23 21 12 28 -19z m-3855
-35 c17 -4 31 -10 31 -13 0 -4 -16 -24 -35 -45 -62 -68 -104 -156 -140 -291
-8 -27 -17 -58 -20 -68 -5 -12 -3 -16 7 -12 8 3 23 27 33 53 58 142 106 223
172 292 61 64 71 71 96 65 15 -4 27 -11 27 -17 0 -5 -16 -42 -35 -81 -43 -90
-79 -226 -100 -382 -4 -27 -11 -232 -15 -455 -8 -405 -11 -441 -55 -655 -44
-220 -116 -404 -222 -567 -103 -160 -168 -219 -338 -307 -89 -47 -159 -63
-246 -59 -71 3 -84 17 -37 37 36 15 181 109 213 138 30 26 96 115 90 121 -2 3
-33 -22 -69 -55 -113 -106 -274 -176 -401 -175 -75 1 -326 59 -332 77 -1 6 29
23 68 39 78 31 161 93 197 146 37 55 11 56 -72 1 -78 -51 -149 -82 -244 -107
-55 -15 -154 -19 -165 -7 -6 6 54 53 68 53 17 0 120 75 179 130 78 74 140 160
206 286 114 220 161 442 180 867 22 474 108 729 289 861 45 33 117 63 127 53
3 -3 -16 -34 -41 -69 -50 -67 -88 -136 -112 -202 -28 -80 -53 -186 -52 -223
l1 -38 13 30 c7 17 25 55 38 86 14 30 35 79 47 109 63 160 159 277 273 334 41
20 101 40 133 45 73 11 201 13 243 5z m711 -151 c145 -48 279 -109 287 -129 3
-9 1 -46 -6 -82 -6 -37 -11 -182 -12 -323 -1 -152 -6 -286 -14 -330 -23 -137
-25 -159 -16 -159 11 0 26 39 50 130 31 122 42 222 50 460 8 213 16 270 40
270 5 0 31 -15 57 -33 l49 -32 -3 -60 c-1 -33 -3 -224 -5 -425 -2 -380 -4
-403 -57 -634 -38 -169 -132 -399 -219 -536 -45 -72 -177 -234 -232 -286 -105
-98 -309 -217 -434 -252 -95 -27 -255 -43 -255 -24 0 4 21 20 48 37 88 56 227
174 281 240 29 37 51 69 48 72 -3 3 -29 -17 -57 -43 -75 -71 -122 -100 -347
-213 -157 -78 -211 -101 -242 -101 -23 0 -41 2 -41 3 0 2 35 40 79 84 114 116
192 236 278 428 64 142 96 242 143 450 36 160 60 401 60 612 1 359 33 571 112
739 29 64 96 159 111 159 19 0 37 -49 43 -117 5 -56 -3 -166 -22 -283 -6 -37
-5 -38 8 -20 40 54 78 230 78 358 l0 79 33 -7 c17 -4 66 -18 107 -32z m-4440
-1100 c0 -5 32 -42 71 -83 64 -68 105 -121 134 -175 57 -103 88 -156 151 -257
40 -64 97 -165 126 -225 33 -68 54 -101 56 -89 2 10 0 28 -6 40 -5 11 -15 39
-22 61 -23 72 -139 302 -183 366 -9 13 -17 27 -17 31 0 16 107 -69 199 -157
189 -182 276 -322 397 -634 59 -153 59 -154 119 -202 33 -27 65 -49 72 -49 28
0 28 74 1 215 -15 80 -21 135 -14 135 18 0 75 -53 132 -122 68 -83 91 -97 79
-50 -15 63 -136 205 -195 228 -29 12 -41 25 -57 64 -16 38 -18 50 -8 50 8 0
17 -5 21 -11 3 -6 63 -38 133 -71 188 -89 188 -89 249 -148 60 -57 164 -207
225 -323 20 -37 44 -78 53 -90 16 -22 16 -21 10 13 -10 57 -101 230 -155 298
-57 69 -49 78 27 36 178 -99 313 -215 473 -409 102 -123 117 -144 250 -355
229 -360 265 -414 329 -489 127 -149 297 -294 407 -345 74 -36 75 -46 4 -46
-42 0 -78 8 -123 26 -35 15 -81 34 -103 43 -122 49 -308 158 -437 257 -27 20
-48 30 -48 23 0 -20 168 -180 250 -238 61 -43 200 -119 262 -144 28 -11 -13
-24 -120 -36 -204 -24 -431 24 -665 140 -194 96 -374 265 -539 504 -73 104
-102 155 -198 341 -90 173 -114 215 -176 296 -55 71 -98 98 -157 98 l-45 0 20
-57 c11 -32 30 -83 43 -113 13 -30 45 -104 70 -164 158 -375 283 -597 414
-735 34 -35 61 -67 61 -71 0 -4 -19 -4 -42 1 -24 4 -46 8 -49 9 -3 0 -39 29
-80 65 -41 36 -148 117 -239 179 -170 118 -242 177 -284 234 -32 44 -42 25
-13 -26 51 -93 145 -180 333 -308 182 -124 187 -130 98 -119 -238 29 -525 173
-715 356 -278 268 -434 573 -519 1014 -12 61 -27 224 -34 360 -5 86 -10 555
-7 578 2 15 47 -46 74 -98 33 -65 67 -171 67 -206 0 -15 5 -31 10 -34 15 -9
12 101 -4 162 -23 86 -61 156 -111 206 -41 41 -50 56 -56 100 -21 142 -22 157
-10 157 6 0 11 -3 11 -7z m7110 -127 c0 -24 -72 -209 -122 -316 -181 -379
-418 -624 -768 -792 -205 -98 -393 -143 -715 -171 -202 -18 -175 -18 -415 5
-113 10 -261 24 -330 29 -150 12 -202 21 -202 34 0 13 219 166 307 214 39 21
108 53 155 72 64 25 79 35 61 37 -40 6 -241 -47 -305 -80 -12 -7 -22 -6 -28 0
-13 13 76 110 140 154 44 31 153 74 285 113 43 13 81 26 84 29 20 19 -129 -5
-249 -40 -38 -11 -16 26 40 70 85 65 145 98 252 139 133 50 211 68 525 118
258 42 394 69 550 109 83 22 305 93 340 110 11 5 54 23 95 40 41 17 81 34 89
37 22 10 5 -41 -36 -105 -62 -98 -139 -187 -248 -288 -103 -95 -135 -136 -135
-169 0 -29 26 -14 130 77 208 180 295 285 376 451 37 76 81 127 110 127 8 0
14 -2 14 -4z m-6385 -70 c396 -97 615 -118 1338 -132 l349 -7 -7 -26 c-9 -37
-22 -49 -84 -81 -71 -35 -142 -55 -264 -75 -104 -17 -141 -28 -152 -44 -14
-24 212 -4 339 29 39 11 72 17 74 16 2 -2 -16 -32 -40 -67 -80 -116 -151 -139
-430 -139 -156 0 -282 12 -403 37 -120 25 -128 26 -122 16 11 -18 111 -62 162
-72 148 -28 232 -34 417 -29 l193 6 -25 -21 c-14 -11 -54 -34 -90 -51 -63 -30
-69 -31 -200 -30 -101 0 -150 5 -195 18 -58 18 -165 66 -189 84 -6 5 -42 26
-81 47 -140 76 -490 322 -722 508 -56 45 -67 63 -30 53 12 -4 85 -22 162 -40z
m1561 -1231 c49 -9 109 -22 134 -30 39 -12 108 -28 230 -55 19 -4 80 -17 136
-28 185 -38 275 -76 486 -201 58 -35 147 -97 199 -138 341 -273 549 -398 823
-495 142 -50 238 -78 273 -78 56 0 60 -17 10 -41 l-47 -23 -30 29 -30 29 -62
-13 c-170 -35 -209 -40 -288 -40 -87 -1 -197 15 -309 44 -35 9 -65 14 -68 11
-15 -15 159 -91 257 -112 108 -23 340 -12 456 22 38 10 35 -13 -4 -31 -20 -10
-71 -35 -113 -55 -41 -20 -84 -39 -95 -43 -174 -54 -293 -70 -454 -64 -313 12
-542 107 -815 339 -118 100 -203 201 -400 478 -57 80 -158 206 -226 280 -178
197 -184 204 -193 218 -10 16 20 16 130 -3z m2465 -140 c79 -9 151 -18 159
-21 26 -10 200 -25 360 -31 170 -6 414 9 578 37 56 9 105 14 107 10 2 -4 -31
-27 -73 -53 -68 -40 -128 -70 -317 -157 -27 -13 -92 -43 -144 -67 -122 -57
-169 -73 -271 -93 l-85 -17 48 -8 c117 -18 326 41 602 170 55 26 103 49 107
51 4 2 9 0 13 -6 11 -17 -177 -194 -295 -276 -162 -114 -222 -141 -410 -190
-239 -62 -563 -34 -840 73 -179 69 -268 119 -620 350 -217 143 -201 129 -167
142 35 14 295 14 357 0 25 -5 146 -12 270 -15 196 -5 223 -4 210 9 -15 14
-185 37 -280 37 -43 0 -80 13 -69 24 3 3 52 14 109 25 136 25 445 28 651 6z"/>
<path d="M4478 9472 c-49 -15 -88 -30 -88 -33 0 -3 102 -5 228 -5 226 1 298
-7 432 -45 80 -24 339 -130 374 -154 11 -8 30 -15 41 -15 19 0 18 2 -5 20 -68
54 -242 140 -375 185 -138 47 -241 66 -380 70 -130 4 -146 2 -227 -23z"/>
<path d="M5930 9517 c0 -7 90 -49 210 -98 58 -24 121 -52 140 -62 53 -29 282
-166 308 -184 40 -28 25 7 -23 53 -114 110 -404 259 -540 278 -27 4 -60 10
-72 13 -13 3 -23 3 -23 0z"/>
<path d="M7310 9162 c0 -5 33 -31 73 -59 39 -28 122 -93 182 -145 308 -265
391 -408 485 -836 13 -56 25 -100 27 -98 2 2 4 51 4 108 0 89 -6 122 -36 227
-40 140 -85 242 -144 330 -100 147 -342 362 -502 446 -67 35 -89 42 -89 27z"/>
<path d="M2435 8457 c-75 -40 -139 -84 -215 -148 -56 -46 -73 -69 -51 -69 13
0 275 177 318 216 49 43 26 43 -52 1z"/>
<path d="M3613 6834 c-81 -18 -176 -57 -234 -96 -46 -31 -97 -93 -86 -105 4
-3 30 4 59 16 47 19 228 69 328 91 53 11 72 21 103 48 34 33 34 38 -4 51 -40
14 -86 12 -166 -5z"/>
<path d="M4577 5918 c-34 -52 -83 -275 -66 -293 12 -12 29 11 29 41 0 12 4 34
10 50 14 40 50 217 45 222 -2 2 -10 -7 -18 -20z"/>
<path d="M9225 5818 c-19 -32 -43 -85 -44 -100 -2 -16 17 -7 22 10 3 9 17 41
31 70 28 57 22 71 -9 20z"/>
<path d="M5030 5032 c0 -19 36 -55 69 -69 52 -23 631 -45 631 -25 0 5 -33 14
-72 21 -40 7 -95 16 -123 22 -27 5 -140 17 -250 25 -110 8 -204 19 -209 25
-12 11 -46 12 -46 1z"/>
<path d="M2294 5049 c-31 -61 -83 -144 -115 -183 -65 -82 -200 -216 -274 -274
-103 -80 -321 -339 -302 -358 13 -14 155 106 386 325 206 195 286 303 351 473
34 89 40 119 23 125 -7 2 -36 -43 -69 -108z"/>
<path d="M3720 3854 c0 -26 119 -183 164 -217 30 -23 76 -37 76 -22 0 17 -65
134 -87 158 -52 53 -153 107 -153 81z"/>
<path d="M5278 4479 c-33 -25 -68 -79 -68 -107 0 -39 29 -11 103 100 23 34 6
38 -35 7z"/>
<path d="M1835 3057 c-42 -65 -66 -233 -46 -327 12 -55 60 -165 68 -156 3 2 6
42 8 88 1 46 8 112 14 148 21 125 11 270 -19 270 -5 0 -16 -10 -25 -23z"/>
<path d="M5637 3173 c-3 -5 -10 -28 -17 -53 -7 -25 -34 -91 -61 -147 -27 -56
-49 -105 -49 -108 0 -3 -8 -25 -19 -48 -48 -107 -58 -135 -65 -170 -4 -20 -4
-37 -1 -37 8 0 60 60 118 138 63 84 121 205 120 252 -1 19 -2 68 -3 108 -1 64
-10 87 -23 65z"/>
<path d="M3530 2867 c0 -38 202 -162 334 -206 79 -26 61 -2 -37 51 -45 25
-125 71 -177 103 -113 69 -120 72 -120 52z"/>
<path d="M5060 1722 c0 -26 98 -78 210 -111 117 -34 141 -42 205 -72 128 -61
237 -133 327 -218 21 -19 41 -32 44 -28 9 8 -128 149 -186 192 -87 64 -216
120 -370 161 -36 9 -92 29 -125 44 -78 35 -105 44 -105 32z"/>
<path d="M6380 1462 c0 -33 115 -71 234 -77 93 -5 99 -4 71 9 -16 8 -86 26
-155 41 -68 15 -130 29 -137 32 -7 3 -13 1 -13 -5z"/>
</g>
</svg>
