<svg width="274" height="146" viewBox="0 0 274 146" fill="none" xmlns="http://www.w3.org/2000/svg">
<path d="M18 118V88V68C18 46 36 28 58 28C80 28 98 46 98 68V118" stroke="#2A2A2A" stroke-width="18" stroke-linecap="square"/>
<path d="M18 78H98" stroke="#2A2A2A" stroke-width="18"/>
<path d="M123 29V117" stroke="#4DA6FF" stroke-width="18" stroke-linecap="square"/>
<path d="M153 28V78C153 100 171 118 193 118C215 118 233 100 233 78V28" stroke="#2A2A2A" stroke-width="18" stroke-linecap="square"/>
<path d="M258 118C262.971 118 267 113.971 267 109C267 104.029 262.971 100 258 100C253.029 100 249 104.029 249 109C249 113.971 253.029 118 258 118Z" fill="#4DA6FF"/>
</svg>
